<?xml version="1.0" encoding="UTF-8" standalone="no"?>
<!-- Created with Inkscape (http://www.inkscape.org/) -->

<svg
   xmlns:dc="http://purl.org/dc/elements/1.1/"
   xmlns:cc="http://creativecommons.org/ns#"
   xmlns:rdf="http://www.w3.org/1999/02/22-rdf-syntax-ns#"
   xmlns:svg="http://www.w3.org/2000/svg"
   xmlns="http://www.w3.org/2000/svg"
   xmlns:sodipodi="http://sodipodi.sourceforge.net/DTD/sodipodi-0.dtd"
   xmlns:inkscape="http://www.inkscape.org/namespaces/inkscape"
   width="744.09448819"
   height="1052.3622047"
   id="svg2"
   version="1.1"
   inkscape:version="0.48.2 r9819"
   sodipodi:docname="icons.svg">
  <defs
     id="defs4" />
  <sodipodi:namedview
     id="base"
     pagecolor="#ffffff"
     bordercolor="#666666"
     borderopacity="1.0"
     inkscape:pageopacity="0.0"
     inkscape:pageshadow="2"
     inkscape:zoom="7.9999999"
     inkscape:cx="46.065265"
     inkscape:cy="812.85763"
     inkscape:document-units="px"
     inkscape:current-layer="layer1"
     showgrid="false"
     inkscape:window-width="1680"
     inkscape:window-height="994"
     inkscape:window-x="-4"
     inkscape:window-y="-4"
     inkscape:window-maximized="1">
    <inkscape:grid
       type="xygrid"
       id="grid2987" />
  </sodipodi:namedview>
  <metadata
     id="metadata7">
    <rdf:RDF>
      <cc:Work
         rdf:about="">
        <dc:format>image/svg+xml</dc:format>
        <dc:type
           rdf:resource="http://purl.org/dc/dcmitype/StillImage" />
        <dc:title></dc:title>
      </cc:Work>
    </rdf:RDF>
  </metadata>
  <g
     inkscape:label="Livello 1"
     inkscape:groupmode="layer"
     id="layer1">
    <path
       style="fill:#ffffff;fill-opacity:1;stroke:none"
       d="m 39.999997,249.95818 c -4.418425,0 -7.999997,3.58804 -7.999997,8.01835 0,1.70915 0.528853,3.294 1.4375,4.59532 -0.696007,1.29676 -1.158494,2.41489 -1,2.70404 0.42972,0.78393 8.459644,0.95267 8.92187,0.18756 0.462226,-0.76512 -3.404926,-7.81196 -4.296872,-7.83079 -0.3559,-0.007 -1.22766,1.07347 -2.124999,2.43834 -0.26774,-0.64755 -0.421873,-1.34936 -0.421873,-2.09447 0,-3.03793 2.454598,-5.50187 5.484371,-5.50187 3.029772,0 5.484371,2.46394 5.484371,5.50187 0,2.10238 -1.17788,3.92008 -2.906246,4.8454 l 1.218747,2.20387 c 2.501565,-1.35583 4.203125,-3.99776 4.203125,-7.04927 0,-4.43031 -3.581578,-8.01835 -7.999997,-8.01835 z"
       id="path3163"
       inkscape:connector-curvature="0"
       inkscape:export-filename="F:\Documents\Programming\SDL e C++\Progetti\Physica\bin\data\graphics\misc\icons.png"
       inkscape:export-xdpi="90"
       inkscape:export-ydpi="90" />
    <path
       style="fill:#ffffff;fill-opacity:1;stroke:none"
       d="M 3.000327,249.95818 C 2.4461445,249.95818 2,250.50156 2,251.1765 l 0,13.56336 c 0,0.67495 0.4461445,1.21832 1.000327,1.21832 l 3.0517717,0 c 0.5541824,0 1.0003268,-0.54337 1.0003268,-1.21832 l 0,-13.56336 c 0,-0.67494 -0.4461444,-1.21832 -1.0003268,-1.21832 l -3.0517717,0 z m 6.94757,0 c -0.554183,0 -1.0003266,0.54338 -1.0003266,1.21832 l 0,13.56336 c 0,0.67495 0.4461436,1.21832 1.0003266,1.21832 l 3.051772,0 c 0.554182,0 1.000327,-0.54337 1.000327,-1.21832 l 0,-13.56336 c 0,-0.67494 -0.446145,-1.21832 -1.000327,-1.21832 l -3.051772,0 z"
       id="rect3206"
       inkscape:connector-curvature="0"
       inkscape:export-filename="F:\Documents\Programming\SDL e C++\Progetti\Physica\bin\data\graphics\misc\icons.png"
       inkscape:export-xdpi="90"
       inkscape:export-ydpi="90" />
    <path
       style="fill:#ffffff;fill-opacity:1;stroke:none"
       d="m 23.999997,249.95818 c -4.419365,0 -7.999997,3.58064 -7.999997,8 0,4.41937 3.580632,8 7.999997,8 4.419365,0 7.999997,-3.58063 7.999997,-8 0,-4.41936 -3.580632,-8 -7.999997,-8 z m 0,2.72781 c 2.911752,0 5.272191,2.36044 5.272191,5.27219 0,2.91175 -2.360439,5.27219 -5.272191,5.27219 -2.911752,0 -5.272192,-2.36044 -5.272192,-5.27219 0,-2.91175 2.36044,-5.27219 5.272192,-5.27219 z m -0.320953,-1.56287 0,2.63894 0.6419,0 0,-2.63894 z m 3.073598,2.45134 -2.788305,3.36144 -2.603272,-1.85439 1.901932,2.98366 0.689447,0.99852 z m -9.587709,4.06277 0,0.6419 2.638932,0 0,-0.6419 z m 11.031196,0 0,0.6419 2.638932,0 0,-0.6419 z m -4.517085,4.51709 0,2.63893 0.6419,0 0,-2.63893 z"
       id="path3230"
       inkscape:connector-curvature="0"
       sodipodi:nodetypes="sssssssssscccccccccccccccccccccccccc"
       inkscape:export-filename="F:\Documents\Programming\SDL e C++\Progetti\Physica\bin\data\graphics\misc\icons.png"
       inkscape:export-xdpi="90"
       inkscape:export-ydpi="90" />
    <path
       style="fill:#ffffff;fill-opacity:1;stroke:none"
       d="m 56.006585,249.95818 c -3.86777,0 -7.006585,2.94457 -7.006585,6.57297 0,1.90043 0.863956,3.6066 2.238946,4.80618 l 0,3.03938 c 0,0.87614 0.751865,1.58147 1.685795,1.58147 l 6.150518,0 c 0.93393,0 1.685795,-0.70533 1.685795,-1.58147 l 0,-3.03938 C 62.138636,260.13756 63,258.43363 63,256.53115 c 0,-3.6284 -3.125645,-6.57297 -6.993415,-6.57297 z m -3.450612,5.59691 c 0.08015,-0.008 0.154773,0 0.237066,0 1.316687,0 2.383819,1.00109 2.383819,2.23629 0,1.23521 -1.067132,2.2363 -2.383819,2.2363 -1.316689,0 -2.38382,-1.00109 -2.38382,-2.2363 0,-1.158 0.944571,-2.12175 2.146754,-2.23629 z m 6.400753,0 c 0.08015,-0.008 0.167942,0 0.250235,0 1.316689,0 2.38382,1.00109 2.38382,2.23629 0,1.23521 -1.067131,2.2363 -2.38382,2.2363 -1.316687,0 -2.383819,-1.00109 -2.383819,-2.2363 0,-1.158 0.9314,-2.12175 2.133585,-2.23629 z"
       id="path3785"
       inkscape:connector-curvature="0" />
  </g>
</svg>
