<?xml version="1.0" encoding="UTF-8" standalone="no"?>
<!-- Created with Inkscape (http://www.inkscape.org/) -->

<svg
   xmlns:dc="http://purl.org/dc/elements/1.1/"
   xmlns:cc="http://creativecommons.org/ns#"
   xmlns:rdf="http://www.w3.org/1999/02/22-rdf-syntax-ns#"
   xmlns:svg="http://www.w3.org/2000/svg"
   xmlns="http://www.w3.org/2000/svg"
   xmlns:sodipodi="http://sodipodi.sourceforge.net/DTD/sodipodi-0.dtd"
   xmlns:inkscape="http://www.inkscape.org/namespaces/inkscape"
   width="744.09448819"
   height="1052.3622047"
   id="svg2"
   version="1.1"
   inkscape:version="0.48.2 r9819"
   sodipodi:docname="icons.cfg">
  <defs
     id="defs4" />
  <sodipodi:namedview
     id="base"
     pagecolor="#ffffff"
     bordercolor="#666666"
     borderopacity="1.0"
     inkscape:pageopacity="0.0"
     inkscape:pageshadow="2"
     inkscape:zoom="2.8284271"
     inkscape:cx="124.8459"
     inkscape:cy="762.48651"
     inkscape:document-units="px"
     inkscape:current-layer="layer1"
     showgrid="false"
     inkscape:window-width="1680"
     inkscape:window-height="994"
     inkscape:window-x="-4"
     inkscape:window-y="-4"
     inkscape:window-maximized="1">
    <inkscape:grid
       type="xygrid"
       id="grid2987" />
  </sodipodi:namedview>
  <metadata
     id="metadata7">
    <rdf:RDF>
      <cc:Work
         rdf:about="">
        <dc:format>image/svg+xml</dc:format>
        <dc:type
           rdf:resource="http://purl.org/dc/dcmitype/StillImage" />
        <dc:title></dc:title>
      </cc:Work>
    </rdf:RDF>
  </metadata>
  <g
     inkscape:label="Livello 1"
     inkscape:groupmode="layer"
     id="layer1">
    <path
       style="fill:#333333;fill-opacity:1;stroke:none"
       d="m 80,233.95818 c -8.83685,0 -16,7.17605 -16,16.0367 0,3.41828 1.05771,6.58798 2.875,9.19062 -1.39201,2.59354 -2.31699,4.8298 -2,5.40808 0.85944,1.56788 16.9193,1.90536 17.84375,0.37513 0.92445,-1.53024 -6.80986,-15.62393 -8.59375,-15.66157 -0.7118,-0.015 -2.45532,2.14692 -4.25,4.87666 -0.53548,-1.29509 -0.84375,-2.69872 -0.84375,-4.18892 0,-6.07588 4.9092,-11.00374 10.96875,-11.00374 6.05955,0 10.96875,4.92786 10.96875,11.00374 0,4.20475 -2.35576,7.84017 -5.8125,9.69079 l 2.4375,4.40774 C 92.59688,261.38176 96,256.09788 96,249.99488 c 0,-8.86065 -7.16315,-16.0367 -16,-16.0367 z"
       id="path3163"
       inkscape:connector-curvature="0" />
    <path
       style="fill:#333333;fill-opacity:1;stroke:none"
       d="m 34.66754,234.73094 c -1.47782,0 -2.66754,1.08674 -2.66754,2.43664 l 0,27.12672 c 0,1.3499 1.18972,2.43664 2.66754,2.43664 l 8.13806,0 c 1.47782,0 2.66754,-1.08674 2.66754,-2.43664 l 0,-27.12672 c 0,-1.3499 -1.18972,-2.43664 -2.66754,-2.43664 l -8.13806,0 z m 18.52686,0 c -1.47782,0 -2.66754,1.08674 -2.66754,2.43664 l 0,27.12672 c 0,1.3499 1.18972,2.43664 2.66754,2.43664 l 8.13806,0 C 62.81028,266.73094 64,265.6442 64,264.2943 l 0,-27.12672 c 0,-1.3499 -1.18972,-2.43664 -2.66754,-2.43664 l -8.13806,0 z"
       id="rect3206"
       inkscape:connector-curvature="0" />
    <path
       style="fill:#333333;fill-opacity:1;stroke:none"
       d="m 16,235.10855 c -8.83873,0 -16,7.16127 -16,16 0,8.83873 7.16127,16 16,16 8.83873,0 16,-7.16127 16,-16 0,-8.83873 -7.16127,-16 -16,-16 z m 0,1.83061 c 7.82554,0 14.16939,6.34385 14.16939,14.16939 0,7.82554 -6.34385,14.16939 -14.16939,14.16939 -7.82554,0 -14.16939,-6.34385 -14.16939,-14.16939 0,-7.82554 6.34385,-14.16939 14.16939,-14.16939 z m -0.6419,0.49926 0,5.27786 1.2838,0 0,-5.27786 -1.2838,0 z m 7.08469,1.40267 -6.51411,10.22288 -5.20654,-3.70876 3.80386,5.96731 1.3789,1.99703 6.53789,-14.47846 z m -20.11292,11.62556 0,1.2838 5.27786,0 0,-1.2838 -5.27786,0 z m 22.0624,0 0,1.2838 5.27786,0 0,-1.2838 -5.27786,0 z m -9.03417,9.03417 0,5.27786 1.2838,0 0,-5.27786 -1.2838,0 z"
       id="path3230"
       inkscape:connector-curvature="0" />
  </g>
</svg>
