<?xml version="1.0" encoding="UTF-8" standalone="no"?>
<!-- Created with Inkscape (http://www.inkscape.org/) -->

<svg
   xmlns:dc="http://purl.org/dc/elements/1.1/"
   xmlns:cc="http://creativecommons.org/ns#"
   xmlns:rdf="http://www.w3.org/1999/02/22-rdf-syntax-ns#"
   xmlns:svg="http://www.w3.org/2000/svg"
   xmlns="http://www.w3.org/2000/svg"
   xmlns:sodipodi="http://sodipodi.sourceforge.net/DTD/sodipodi-0.dtd"
   xmlns:inkscape="http://www.inkscape.org/namespaces/inkscape"
   width="744.09448819"
   height="1052.3622047"
   id="svg2"
   version="1.1"
   inkscape:version="0.48.4 r9939"
   sodipodi:docname="icons.svg"
   inkscape:export-filename="F:\Documents\Programming\SDL e C++\Progetti\Physica\svg\icons.png"
   inkscape:export-xdpi="90"
   inkscape:export-ydpi="90">
  <defs
     id="defs4" />
  <sodipodi:namedview
     id="base"
     pagecolor="#ffffff"
     bordercolor="#666666"
     borderopacity="1.0"
     inkscape:pageopacity="0.0"
     inkscape:pageshadow="2"
     inkscape:zoom="2.2953349"
     inkscape:cx="133.41701"
     inkscape:cy="739.60772"
     inkscape:document-units="px"
     inkscape:current-layer="layer1"
     showgrid="false"
     inkscape:window-width="1680"
     inkscape:window-height="994"
     inkscape:window-x="-4"
     inkscape:window-y="-4"
     inkscape:window-maximized="1">
    <inkscape:grid
       type="xygrid"
       id="grid2987" />
  </sodipodi:namedview>
  <metadata
     id="metadata7">
    <rdf:RDF>
      <cc:Work
         rdf:about="">
        <dc:format>image/svg+xml</dc:format>
        <dc:type
           rdf:resource="http://purl.org/dc/dcmitype/StillImage" />
        <dc:title></dc:title>
      </cc:Work>
    </rdf:RDF>
  </metadata>
  <g
     inkscape:label="Livello 1"
     inkscape:groupmode="layer"
     id="layer1">
    <path
       style="fill:#4d4d4d;fill-opacity:1;stroke:none"
       d="m 39.999997,286.36218 c -4.418425,0 -7.999997,3.58804 -7.999997,8.01835 0,1.70915 0.528853,3.294 1.4375,4.59532 -0.696007,1.29676 -1.158494,2.41489 -1,2.70404 0.42972,0.78393 8.459644,0.95267 8.92187,0.18756 0.462226,-0.76512 -3.404926,-7.81196 -4.296872,-7.83079 -0.3559,-0.007 -1.22766,1.07347 -2.124999,2.43834 -0.26774,-0.64755 -0.421873,-1.34936 -0.421873,-2.09447 0,-3.03793 2.454598,-5.50187 5.484371,-5.50187 3.029772,0 5.484371,2.46394 5.484371,5.50187 0,2.10238 -1.17788,3.92008 -2.906246,4.8454 l 1.218747,2.20387 c 2.501565,-1.35583 4.203125,-3.99776 4.203125,-7.04927 0,-4.43031 -3.581578,-8.01835 -7.999997,-8.01835 z"
       id="path3163"
       inkscape:connector-curvature="0"
       inkscape:export-filename="F:\Documents\Programming\SDL e C++\Progetti\Physica\bin\data\graphics\misc\icons.png"
       inkscape:export-xdpi="90"
       inkscape:export-ydpi="90" />
    <path
       style="fill:#4d4d4d;fill-opacity:1;stroke:none"
       d="M 3.000327,286.36218 C 2.4461445,286.36218 2,286.90556 2,287.5805 l 0,13.56336 c 0,0.67495 0.4461445,1.21832 1.000327,1.21832 l 3.0517717,0 c 0.5541824,0 1.0003268,-0.54337 1.0003268,-1.21832 l 0,-13.56336 c 0,-0.67494 -0.4461444,-1.21832 -1.0003268,-1.21832 l -3.0517717,0 z m 6.94757,0 c -0.554183,0 -1.0003266,0.54338 -1.0003266,1.21832 l 0,13.56336 c 0,0.67495 0.4461436,1.21832 1.0003266,1.21832 l 3.051772,0 c 0.554182,0 1.000327,-0.54337 1.000327,-1.21832 l 0,-13.56336 c 0,-0.67494 -0.446145,-1.21832 -1.000327,-1.21832 l -3.051772,0 z"
       id="rect3206"
       inkscape:connector-curvature="0"
       inkscape:export-filename="F:\Documents\Programming\SDL e C++\Progetti\Physica\bin\data\graphics\misc\icons.png"
       inkscape:export-xdpi="90"
       inkscape:export-ydpi="90" />
    <path
       style="fill:#4d4d4d;fill-opacity:1;stroke:none"
       d="m 23.999997,286.36218 c -4.419365,0 -7.999997,3.58064 -7.999997,8 0,4.41937 3.580632,8 7.999997,8 4.419365,0 7.999997,-3.58063 7.999997,-8 0,-4.41936 -3.580632,-8 -7.999997,-8 z m 0,2.72781 c 2.911752,0 5.272191,2.36044 5.272191,5.27219 0,2.91175 -2.360439,5.27219 -5.272191,5.27219 -2.911752,0 -5.272192,-2.36044 -5.272192,-5.27219 0,-2.91175 2.36044,-5.27219 5.272192,-5.27219 z m -0.320953,-1.56287 0,2.63894 0.6419,0 0,-2.63894 z m 3.073598,2.45134 -2.788305,3.36144 -2.603272,-1.85439 1.901932,2.98366 0.689447,0.99852 z m -9.587709,4.06277 0,0.6419 2.638932,0 0,-0.6419 z m 11.031196,0 0,0.6419 2.638932,0 0,-0.6419 z m -4.517085,4.51709 0,2.63893 0.6419,0 0,-2.63893 z"
       id="path3230"
       inkscape:connector-curvature="0"
       sodipodi:nodetypes="sssssssssscccccccccccccccccccccccccc"
       inkscape:export-filename="F:\Documents\Programming\SDL e C++\Progetti\Physica\bin\data\graphics\misc\icons.png"
       inkscape:export-xdpi="90"
       inkscape:export-ydpi="90" />
    <path
       style="fill:#4d4d4d;fill-opacity:1;stroke:none"
       d="m 56.006585,286.36218 c -3.86777,0 -7.006585,2.94457 -7.006585,6.57297 0,1.90043 0.863956,3.6066 2.238946,4.80618 l 0,3.03938 c 0,0.87614 0.751865,1.58147 1.685795,1.58147 l 6.150518,0 c 0.93393,0 1.685795,-0.70533 1.685795,-1.58147 l 0,-3.03938 C 62.138636,296.54156 63,294.83763 63,292.93515 c 0,-3.6284 -3.125645,-6.57297 -6.993415,-6.57297 z m -3.450612,5.59691 c 0.08015,-0.008 0.154773,0 0.237066,0 1.316687,0 2.383819,1.00109 2.383819,2.23629 0,1.23521 -1.067132,2.2363 -2.383819,2.2363 -1.316689,0 -2.38382,-1.00109 -2.38382,-2.2363 0,-1.158 0.944571,-2.12175 2.146754,-2.23629 z m 6.400753,0 c 0.08015,-0.008 0.167942,0 0.250235,0 1.316689,0 2.38382,1.00109 2.38382,2.23629 0,1.23521 -1.067131,2.2363 -2.38382,2.2363 -1.316687,0 -2.383819,-1.00109 -2.383819,-2.2363 0,-1.158 0.9314,-2.12175 2.133585,-2.23629 z"
       id="path3785"
       inkscape:connector-curvature="0" />
    <path
       sodipodi:type="star"
       style="fill:#ffffff;fill-opacity:1;stroke:none"
       id="path3944"
       sodipodi:sides="3"
       sodipodi:cx="14.125"
       sodipodi:cy="281.86218"
       sodipodi:r1="16.841169"
       sodipodi:r2="8.4205847"
       sodipodi:arg1="0"
       sodipodi:arg2="1.0471976"
       inkscape:flatsided="true"
       inkscape:rounded="0.1"
       inkscape:randomized="0"
       d="m 30.966169,281.86218 c 0,2.91698 -22.7355783,16.04337 -25.2617537,14.58488 -2.5261754,-1.45848 -2.5261754,-27.71127 0,-29.16976 2.5261754,-1.45849 25.2617537,11.66791 25.2617537,14.58488 z"
       inkscape:transform-center-x="-11.534885"
       transform="matrix(3.5350802,0,0,-3.2658432,50.532109,1174.8799)"
       inkscape:export-filename="F:\Documents\Programming\SDL e C++\Progetti\Physica\bin\data\graphics\misc\play.png"
       inkscape:export-xdpi="90"
       inkscape:export-ydpi="90" />
    <path
       style="fill:#4d4d4d;fill-opacity:1;stroke:none"
       d="m 30.053574,256.3086 c -2.59523,-2.59522 -6.77383,-2.59522 -9.36905,0 l -4.68453,4.68452 -4.684527,-4.68452 c -2.5952215,-2.59522 -6.7738205,-2.59522 -9.3690475,0 -2.595226,2.59523 -2.595226,6.77382 0,9.36906 l 4.684527,4.68452 -4.684527,4.68453 c -2.595226,2.59522 -2.595226,6.77383 0,9.36906 2.595227,2.59522 6.773826,2.59522 9.3690475,0 l 4.684527,-4.68453 4.68453,4.68453 c 2.59522,2.59522 6.77382,2.59522 9.36905,0 2.59523,-2.59523 2.59523,-6.77384 0,-9.36906 l -4.68452,-4.68453 4.68452,-4.68452 c 2.59523,-2.59524 2.59523,-6.77383 0,-9.36906 z"
       id="rect3946"
       inkscape:connector-curvature="0"
       inkscape:export-filename="F:\Documents\Programming\SDL e C++\Progetti\Physica\bin\data\graphics\misc\quit.png"
       inkscape:export-xdpi="90"
       inkscape:export-ydpi="90" />
    <path
       style="fill:#4d4d4d;fill-opacity:1;stroke:none"
       d="m 36.8,256.36218 c -2.6592,0 -4.8,1.8732 -4.8,4.2 0,2.3268 2.1408,4.2 4.8,4.2 l 22.4,0 c 2.6592,0 4.8,-1.8732 4.8,-4.2 0,-2.3268 -2.1408,-4.2 -4.8,-4.2 l -22.4,0 z m 0,9.8 c -2.6592,0 -4.8,1.8732 -4.8,4.2 0,2.3268 2.1408,4.2 4.8,4.2 l 22.4,0 c 2.6592,0 4.8,-1.8732 4.8,-4.2 0,-2.3268 -2.1408,-4.2 -4.8,-4.2 l -22.4,0 z m 0,9.8 c -2.6592,0 -4.8,1.8732 -4.8,4.2 0,2.3268 2.1408,4.2 4.8,4.2 l 22.4,0 c 2.6592,0 4.8,-1.8732 4.8,-4.2 0,-2.3268 -2.1408,-4.2 -4.8,-4.2 l -22.4,0 z"
       id="rect3967"
       inkscape:export-filename="F:\Documents\Programming\SDL e C++\Progetti\Physica\bin\data\graphics\misc\credits.png"
       inkscape:export-xdpi="90"
       inkscape:export-ydpi="90"
       inkscape:connector-curvature="0" />
    <path
       style="fill:#ffffff;fill-opacity:1;stroke:none"
       d="m 254.33132,206.37018 c 0.48373,0.0223 0.86701,0.13674 1.14947,0.36006 6.02561,4.76387 6.02561,90.49976 0,95.26365 -2.70295,2.13695 -15.09963,-5.30737 -27.95607,-15.03216 -0.75154,8.13681 -1.83952,13.89731 -3.27493,15.03216 C 218.22418,306.75776 164,263.90481 164,254.37706 c 0,-9.52775 54.22418,-52.4107 60.24979,-47.64682 1.43541,1.13484 2.52339,6.89534 3.27493,15.03215 11.51298,-8.70858 22.66115,-15.5833 26.8066,-15.39221 z"
       id="path3944-1"
       inkscape:connector-curvature="0"
       inkscape:export-filename="F:\Documents\Programming\SDL e C++\Progetti\Physica\bin\data\graphics\misc\back.png"
       inkscape:export-xdpi="90"
       inkscape:export-ydpi="90" />
    <path
       sodipodi:type="star"
       style="fill:#ffcc00;fill-opacity:1;stroke:none"
       id="path2999"
       sodipodi:sides="5"
       sodipodi:cx="253.5"
       sodipodi:cy="195.86217"
       sodipodi:r1="71.142464"
       sodipodi:r2="42.685478"
       sodipodi:arg1="-1.5707963"
       sodipodi:arg2="-0.92412569"
       inkscape:flatsided="false"
       inkscape:rounded="0.1"
       inkscape:randomized="0"
       d="m 253.5,124.7197 c 4.51153,0.0829 22.06885,34.4232 25.71939,37.07543 3.53113,2.56547 40.66881,7.90767 41.94111,12.08281 1.31533,4.31632 -25.91875,31.62608 -27.31309,35.91753 -1.34874,4.15108 5.0467,41.12194 1.46908,43.62216 -3.69861,2.58477 -38.08753,-14.87721 -42.59981,-14.87717 -4.36469,3e-5 -37.54977,17.50708 -41.03317,14.87717 -3.6012,-2.71885 2.37937,-40.8207 0.98496,-45.11213 -1.34879,-4.15106 -28.25374,-30.30197 -26.82897,-34.42756 1.47294,-4.26512 39.55806,-10.35138 43.20855,-13.00366 3.53109,-2.56553 20.088,-36.23473 24.45195,-36.15458 z"
       inkscape:transform-center-y="-4.976051"
       transform="matrix(0.70889633,0,0,0.74437503,132.29779,113.52406)"
       inkscape:export-filename="F:\Documents\Programming\SDL e C++\Progetti\Physica\bin\data\graphics\misc\stars.png"
       inkscape:export-xdpi="90"
       inkscape:export-ydpi="90" />
    <path
       style="fill:#4d4d4d;fill-rule:evenodd;stroke:none"
       d="m 13.236844,222.36218 c -0.83736,0 -1.51148,0.64827 -1.51148,1.45351 l 0,3.49752 c -1.30402,0.46667 -2.5147097,1.13681 -3.5661197,1.97587 l -3.11741,-1.74876 c -0.27195,-0.15098 -0.58365,-0.20119 -0.87382,-0.18169 -0.48363,0.0325 -0.94277,0.26819 -1.20445,0.70405 l -2.76316001,4.61036 c -0.41867,0.69736 -0.15837,1.59596 0.5668,1.99858 l 3.14102001,1.74876 c -0.11025,0.63616 -0.18893,1.2869 -0.18893,1.95316 0,0.66625 0.0787,1.31699 0.18893,1.95315 l -3.14102001,1.74876 c -0.72517,0.40262 -0.98547,1.30122 -0.5668,1.99858 l 2.76316001,4.61036 c 0.41868,0.69737 1.35309,0.92499 2.07827,0.52236 l 3.11741,-1.74876 c 1.05141,0.83906 2.2620997,1.5092 3.5661197,1.97587 l 0,3.47481 c 0,0.80524 0.67412,1.45351 1.51148,1.45351 l 5.52631,0 c 0.83736,0 1.51147,-0.64827 1.51147,-1.45351 l 0,-3.47481 c 1.30403,-0.46667 2.51472,-1.13681 3.56613,-1.97587 l 3.11741,1.74876 c 0.72518,0.40263 1.65959,0.17501 2.07827,-0.52236 l 2.76316,-4.61036 c 0.41867,-0.69736 0.15837,-1.59596 -0.5668,-1.99858 l -3.14103,-1.74876 c 0.11026,-0.63616 0.18894,-1.2869 0.18894,-1.95315 0,-0.66626 -0.0787,-1.317 -0.18894,-1.95316 l 3.14103,-1.74876 c 0.72517,-0.40262 0.98547,-1.30122 0.5668,-1.99858 l -2.76316,-4.61036 c -0.31401,-0.52303 -0.92691,-0.77449 -1.51147,-0.70405 -0.19485,0.0235 -0.38551,0.081 -0.5668,0.18169 l -3.11741,1.74876 c -1.05141,-0.83906 -2.2621,-1.5092 -3.56613,-1.97587 l 0,-3.49752 c 0,-0.80524 -0.67411,-1.45351 -1.51147,-1.45351 l -5.52631,0 z m 2.76315,10.74237 c 3.02601,0 5.47909,2.35901 5.47909,5.26899 0,2.90997 -2.45308,5.26898 -5.47909,5.26898 -3.02601,0 -5.47908,-2.35901 -5.47908,-5.26898 0,-2.90998 2.45307,-5.26899 5.47908,-5.26899 z"
       id="path3019"
       inkscape:connector-curvature="0"
       inkscape:export-filename="E:\Documents\Programming\SDL e C++\Progetti\Physica\bin\data\graphics\misc\gear.png"
       inkscape:export-xdpi="90"
       inkscape:export-ydpi="90" />
    <path
       style="fill:#4d4d4d;stroke:none"
       d="m 44.507179,224.36221 c -0.0727,0.0811 -0.14291,0.16181 -0.2178,0.24205 -2.43923,2.6141 -5.32756,3.96568 -7.30023,3.62219 l -4.69473,5.03128 c -0.30525,0.32714 -0.38371,0.74719 -0.18553,0.95958 l 3.62188,3.88153 c 0.19817,0.21238 0.59014,0.1283 0.89539,-0.19884 l 3.94454,-4.22732 5.75146,6.17241 -9.84927,10.55533 c -0.19817,0.21238 -0.19817,0.557 0,0.76939 l 0.96799,1.03739 c 0.19817,0.21238 0.51168,0.20373 0.70986,-0.009 l 9.84926,-10.56398 9.84926,10.56398 c 0.19818,0.21238 0.51975,0.22103 0.71793,0.009 l 0.95992,-1.03739 c 0.19817,-0.21239 0.19817,-0.55701 0,-0.76939 l -9.84927,-10.56398 5.75146,-6.16376 3.94454,4.22732 c 0.30525,0.32714 0.70528,0.41122 0.90346,0.19884 l 3.61381,-3.88153 c 0.19818,-0.21239 0.11972,-0.63244 -0.18553,-0.95958 l -4.69473,-5.03128 c -1.97267,0.34349 -4.861,-1.00809 -7.30024,-3.62219 -0.0749,-0.0802 -0.13706,-0.16093 -0.20973,-0.24205 l -2.0247,2.16121 c -0.19817,0.21238 -0.11972,0.64109 0.18553,0.96821 l 4.09781,4.38294 -5.75952,6.1724 -5.75145,-6.1724 4.08974,-4.38294 c 0.30525,-0.32712 0.3837,-0.75583 0.18553,-0.96821 l -2.01664,-2.16121 z"
       id="rect4031"
       inkscape:connector-curvature="0"
       inkscape:export-filename="E:\Documents\Programming\SDL e C++\Progetti\Physica\bin\data\graphics\misc\hammer.png"
       inkscape:export-xdpi="90"
       inkscape:export-ydpi="90" />
  </g>
</svg>
