<?xml version="1.0" encoding="UTF-8" standalone="no"?>
<!-- Created with Inkscape (http://www.inkscape.org/) -->

<svg
   xmlns:dc="http://purl.org/dc/elements/1.1/"
   xmlns:cc="http://creativecommons.org/ns#"
   xmlns:rdf="http://www.w3.org/1999/02/22-rdf-syntax-ns#"
   xmlns:svg="http://www.w3.org/2000/svg"
   xmlns="http://www.w3.org/2000/svg"
   xmlns:sodipodi="http://sodipodi.sourceforge.net/DTD/sodipodi-0.dtd"
   xmlns:inkscape="http://www.inkscape.org/namespaces/inkscape"
   width="744.09448819"
   height="1052.3622047"
   id="svg2"
   version="1.1"
   inkscape:version="0.48.4 r9939"
   sodipodi:docname="icons.svg"
   inkscape:export-filename="F:\Documents\Programming\WIP\Physica\bin\data\graphics\icons.png"
   inkscape:export-xdpi="90"
   inkscape:export-ydpi="90">
  <defs
     id="defs4" />
  <sodipodi:namedview
     id="base"
     pagecolor="#000000"
     bordercolor="#666666"
     borderopacity="1.0"
     inkscape:pageopacity="0"
     inkscape:pageshadow="2"
     inkscape:zoom="2.8284271"
     inkscape:cx="182.30988"
     inkscape:cy="618.07957"
     inkscape:document-units="px"
     inkscape:current-layer="g3036"
     showgrid="false"
     inkscape:window-width="1680"
     inkscape:window-height="994"
     inkscape:window-x="-4"
     inkscape:window-y="-4"
     inkscape:window-maximized="1">
    <inkscape:grid
       type="xygrid"
       id="grid2987"
       empspacing="5"
       visible="true"
       enabled="true"
       snapvisiblegridlinesonly="true" />
  </sodipodi:namedview>
  <metadata
     id="metadata7">
    <rdf:RDF>
      <cc:Work
         rdf:about="">
        <dc:format>image/svg+xml</dc:format>
        <dc:type
           rdf:resource="http://purl.org/dc/dcmitype/StillImage" />
        <dc:title></dc:title>
      </cc:Work>
    </rdf:RDF>
  </metadata>
  <g
     inkscape:label="Livello 1"
     inkscape:groupmode="layer"
     id="layer1">
    <g
       id="g3036">
      <path
         inkscape:export-ydpi="90"
         inkscape:export-xdpi="90"
         inkscape:export-filename="F:\Documents\Programming\WIP\Physica\bin\data\graphics\misc\icons.png"
         inkscape:connector-curvature="0"
         id="path3163"
         d="m 39.999991,320.36218 c -4.418425,0 -7.999997,3.58804 -7.999997,8.01835 0,1.70915 0.528853,3.294 1.4375,4.59532 -0.696007,1.29676 -1.158494,2.41489 -1,2.70404 0.42972,0.78393 8.459644,0.95267 8.92187,0.18756 0.462226,-0.76512 -3.404926,-7.81196 -4.296872,-7.83079 -0.3559,-0.007 -1.22766,1.07347 -2.124999,2.43834 -0.26774,-0.64755 -0.421873,-1.34936 -0.421873,-2.09447 0,-3.03793 2.454598,-5.50187 5.484371,-5.50187 3.029772,0 5.484371,2.46394 5.484371,5.50187 0,2.10238 -1.17788,3.92008 -2.906246,4.8454 l 1.218747,2.20387 c 2.501565,-1.35583 4.203125,-3.99776 4.203125,-7.04927 0,-4.43031 -3.581578,-8.01835 -7.999997,-8.01835 z"
         style="fill:#ffffff;fill-opacity:1;stroke:none" />
      <path
         inkscape:export-ydpi="90"
         inkscape:export-xdpi="90"
         inkscape:export-filename="F:\Documents\Programming\WIP\Physica\bin\data\graphics\misc\icons.png"
         inkscape:connector-curvature="0"
         id="rect3206"
         d="M 3.000327,320.36218 C 2.4461445,320.36218 2,320.90556 2,321.5805 l 0,13.56336 c 0,0.67495 0.4461445,1.21832 1.000327,1.21832 l 3.0517717,0 c 0.5541824,0 1.0003268,-0.54337 1.0003268,-1.21832 l 0,-13.56336 c 0,-0.67494 -0.4461444,-1.21832 -1.0003268,-1.21832 l -3.0517717,0 z m 6.94757,0 c -0.554183,0 -1.0003266,0.54338 -1.0003266,1.21832 l 0,13.56336 c 0,0.67495 0.4461436,1.21832 1.0003266,1.21832 l 3.051772,0 c 0.554182,0 1.000327,-0.54337 1.000327,-1.21832 l 0,-13.56336 c 0,-0.67494 -0.446145,-1.21832 -1.000327,-1.21832 l -3.051772,0 z"
         style="fill:#ffffff;fill-opacity:1;stroke:none" />
      <path
         inkscape:export-ydpi="90"
         inkscape:export-xdpi="90"
         inkscape:export-filename="F:\Documents\Programming\WIP\Physica\bin\data\graphics\misc\icons.png"
         sodipodi:nodetypes="sssssssssscccccccccccccccccccccccccc"
         inkscape:connector-curvature="0"
         id="path3230"
         d="m 23.999997,320.36218 c -4.419365,0 -7.999997,3.58064 -7.999997,8 0,4.41937 3.580632,8 7.999997,8 4.419365,0 7.999997,-3.58063 7.999997,-8 0,-4.41936 -3.580632,-8 -7.999997,-8 z m 0,2.72781 c 2.911752,0 5.272191,2.36044 5.272191,5.27219 0,2.91175 -2.360439,5.27219 -5.272191,5.27219 -2.911752,0 -5.272192,-2.36044 -5.272192,-5.27219 0,-2.91175 2.36044,-5.27219 5.272192,-5.27219 z m -0.320953,-1.56287 0,2.63894 0.6419,0 0,-2.63894 z m 3.073598,2.45134 -2.788305,3.36144 -2.603272,-1.85439 1.901932,2.98366 0.689447,0.99852 z m -9.587709,4.06277 0,0.6419 2.638932,0 0,-0.6419 z m 11.031196,0 0,0.6419 2.638932,0 0,-0.6419 z m -4.517085,4.51709 0,2.63893 0.6419,0 0,-2.63893 z"
         style="fill:#ffffff;fill-opacity:1;stroke:none" />
      <path
         inkscape:export-ydpi="90"
         inkscape:export-xdpi="90"
         inkscape:export-filename="F:\Documents\Programming\WIP\Physica\bin\data\graphics\misc\icons.png"
         inkscape:connector-curvature="0"
         id="path3785"
         d="m 56.006585,320.36218 c -3.86777,0 -7.006585,2.94457 -7.006585,6.57297 0,1.90043 0.863956,3.6066 2.238946,4.80618 l 0,3.03938 c 0,0.87614 0.751865,1.58147 1.685795,1.58147 l 6.150518,0 c 0.93393,0 1.685795,-0.70533 1.685795,-1.58147 l 0,-3.03938 C 62.138636,330.54156 63,328.83763 63,326.93515 c 0,-3.6284 -3.125645,-6.57297 -6.993415,-6.57297 z m -3.450612,5.59691 c 0.08015,-0.008 0.154773,0 0.237066,0 1.316687,0 2.383819,1.00109 2.383819,2.23629 0,1.23521 -1.067132,2.2363 -2.383819,2.2363 -1.316689,0 -2.38382,-1.00109 -2.38382,-2.2363 0,-1.158 0.944571,-2.12175 2.146754,-2.23629 z m 6.400753,0 c 0.08015,-0.008 0.167942,0 0.250235,0 1.316689,0 2.38382,1.00109 2.38382,2.23629 0,1.23521 -1.067131,2.2363 -2.38382,2.2363 -1.316687,0 -2.383819,-1.00109 -2.383819,-2.2363 0,-1.158 0.9314,-2.12175 2.133585,-2.23629 z"
         style="fill:#ffffff;fill-opacity:1;stroke:none" />
      <path
         inkscape:export-ydpi="90"
         inkscape:export-xdpi="90"
         inkscape:export-filename="F:\Documents\Programming\WIP\Physica\bin\data\graphics\misc\icons.png"
         transform="matrix(3.5350802,0,0,-3.2658432,82.532106,1416.8799)"
         inkscape:transform-center-x="-11.534885"
         d="m 30.966169,281.86218 c 0,2.91698 -22.7355783,16.04337 -25.2617537,14.58488 -2.5261754,-1.45848 -2.5261754,-27.71127 0,-29.16976 2.5261754,-1.45849 25.2617537,11.66791 25.2617537,14.58488 z"
         inkscape:randomized="0"
         inkscape:rounded="0.1"
         inkscape:flatsided="true"
         sodipodi:arg2="1.0471976"
         sodipodi:arg1="0"
         sodipodi:r2="8.4205847"
         sodipodi:r1="16.841169"
         sodipodi:cy="281.86218"
         sodipodi:cx="14.125"
         sodipodi:sides="3"
         id="path3944"
         style="fill:#ffffff;fill-opacity:1;stroke:none"
         sodipodi:type="star" />
      <path
         inkscape:export-ydpi="90"
         inkscape:export-xdpi="90"
         inkscape:export-filename="F:\Documents\Programming\WIP\Physica\bin\data\graphics\misc\icons.png"
         inkscape:connector-curvature="0"
         id="rect3946"
         d="m 126.05357,322.3086 c -2.59523,-2.59522 -6.77383,-2.59522 -9.36905,0 l -4.68453,4.68452 -4.68453,-4.68452 c -2.59522,-2.59522 -6.77381,-2.59522 -9.36904,0 -2.595226,2.59523 -2.595226,6.77382 0,9.36906 l 4.68453,4.68452 -4.68453,4.68453 c -2.595226,2.59522 -2.595226,6.77383 0,9.36906 2.59523,2.59522 6.77382,2.59522 9.36904,0 l 4.68453,-4.68453 4.68453,4.68453 c 2.59522,2.59522 6.77382,2.59522 9.36905,0 2.59523,-2.59523 2.59523,-6.77384 0,-9.36906 l -4.68452,-4.68453 4.68452,-4.68452 c 2.59523,-2.59524 2.59523,-6.77383 0,-9.36906 z"
         style="fill:#ffffff;fill-opacity:1;stroke:none" />
      <path
         inkscape:connector-curvature="0"
         inkscape:export-ydpi="90"
         inkscape:export-xdpi="90"
         inkscape:export-filename="F:\Documents\Programming\WIP\Physica\bin\data\graphics\misc\icons.png"
         id="rect3967"
         d="m 196.79998,322.36187 c -2.6592,0 -4.8,1.8732 -4.8,4.2 0,2.3268 2.1408,4.2 4.8,4.2 l 22.4,0 c 2.6592,0 4.8,-1.8732 4.8,-4.2 0,-2.3268 -2.1408,-4.2 -4.8,-4.2 l -22.4,0 z m 0,9.8 c -2.6592,0 -4.8,1.8732 -4.8,4.2 0,2.3268 2.1408,4.2 4.8,4.2 l 22.4,0 c 2.6592,0 4.8,-1.8732 4.8,-4.2 0,-2.3268 -2.1408,-4.2 -4.8,-4.2 l -22.4,0 z m 0,9.8 c -2.6592,0 -4.8,1.8732 -4.8,4.2 0,2.3268 2.1408,4.2 4.8,4.2 l 22.4,0 c 2.6592,0 4.8,-1.8732 4.8,-4.2 0,-2.3268 -2.1408,-4.2 -4.8,-4.2 l -22.4,0 z"
         style="fill:#ffffff;fill-opacity:1;stroke:none" />
      <path
         inkscape:export-ydpi="90"
         inkscape:export-xdpi="90"
         inkscape:export-filename="F:\Documents\Programming\WIP\Physica\bin\data\graphics\misc\icons.png"
         inkscape:connector-curvature="0"
         id="path3944-1"
         d="m 90.33132,448.37018 c 0.48373,0.0223 0.86701,0.13674 1.14947,0.36006 6.02561,4.76387 6.02561,90.49976 0,95.26365 -2.70295,2.13695 -15.09963,-5.30737 -27.95607,-15.03216 -0.75154,8.13681 -1.83952,13.89731 -3.27493,15.03216 C 54.22418,548.75776 1.8898928e-7,505.90481 1.8898928e-7,496.37706 1.8898928e-7,486.84931 54.22418,443.96636 60.24979,448.73024 c 1.43541,1.13484 2.52339,6.89534 3.27493,15.03215 11.51298,-8.70858 22.66115,-15.5833 26.8066,-15.39221 z"
         style="fill:#ffffff;fill-opacity:1;stroke:none" />
      <path
         inkscape:export-ydpi="90"
         inkscape:export-xdpi="90"
         inkscape:export-filename="F:\Documents\Programming\WIP\Physica\bin\data\graphics\misc\icons.png"
         transform="matrix(0.70889633,0,0,0.74437503,-131.70221,259.52406)"
         inkscape:transform-center-y="-4.976051"
         d="m 253.5,124.7197 c 4.51153,0.0829 22.06885,34.4232 25.71939,37.07543 3.53113,2.56547 40.66881,7.90767 41.94111,12.08281 1.31533,4.31632 -25.91875,31.62608 -27.31309,35.91753 -1.34874,4.15108 5.0467,41.12194 1.46908,43.62216 -3.69861,2.58477 -38.08753,-14.87721 -42.59981,-14.87717 -4.36469,3e-5 -37.54977,17.50708 -41.03317,14.87717 -3.6012,-2.71885 2.37937,-40.8207 0.98496,-45.11213 -1.34879,-4.15106 -28.25374,-30.30197 -26.82897,-34.42756 1.47294,-4.26512 39.55806,-10.35138 43.20855,-13.00366 3.53109,-2.56553 20.088,-36.23473 24.45195,-36.15458 z"
         inkscape:randomized="0"
         inkscape:rounded="0.1"
         inkscape:flatsided="false"
         sodipodi:arg2="-0.92412569"
         sodipodi:arg1="-1.5707963"
         sodipodi:r2="42.685478"
         sodipodi:r1="71.142464"
         sodipodi:cy="195.86217"
         sodipodi:cx="253.5"
         sodipodi:sides="5"
         id="path2999"
         style="fill:#191919;fill-opacity:1;stroke:none"
         sodipodi:type="star" />
      <path
         inkscape:export-ydpi="90"
         inkscape:export-xdpi="90"
         inkscape:export-filename="F:\Documents\Programming\WIP\Physica\bin\data\graphics\misc\icons.png"
         inkscape:connector-curvature="0"
         id="path3019"
         d="m 173.23683,320.36187 c -0.83736,0 -1.51148,0.64827 -1.51148,1.45351 l 0,3.49752 c -1.30402,0.46667 -2.51471,1.13681 -3.56612,1.97587 l -3.11741,-1.74876 c -0.27195,-0.15098 -0.58365,-0.20119 -0.87382,-0.18169 -0.48363,0.0325 -0.94277,0.26819 -1.20445,0.70405 l -2.76316,4.61036 c -0.41867,0.69736 -0.15837,1.59596 0.5668,1.99858 l 3.14102,1.74876 c -0.11025,0.63616 -0.18893,1.2869 -0.18893,1.95316 0,0.66625 0.0787,1.31699 0.18893,1.95315 l -3.14102,1.74876 c -0.72517,0.40262 -0.98547,1.30122 -0.5668,1.99858 l 2.76316,4.61036 c 0.41868,0.69737 1.35309,0.92499 2.07827,0.52236 l 3.11741,-1.74876 c 1.05141,0.83906 2.2621,1.5092 3.56612,1.97587 l 0,3.47481 c 0,0.80524 0.67412,1.45351 1.51148,1.45351 l 5.52631,0 c 0.83736,0 1.51147,-0.64827 1.51147,-1.45351 l 0,-3.47481 c 1.30403,-0.46667 2.51472,-1.13681 3.56613,-1.97587 l 3.11741,1.74876 c 0.72518,0.40263 1.65959,0.17501 2.07827,-0.52236 l 2.76316,-4.61036 c 0.41867,-0.69736 0.15837,-1.59596 -0.5668,-1.99858 l -3.14103,-1.74876 c 0.11026,-0.63616 0.18894,-1.2869 0.18894,-1.95315 0,-0.66626 -0.0787,-1.317 -0.18894,-1.95316 l 3.14103,-1.74876 c 0.72517,-0.40262 0.98547,-1.30122 0.5668,-1.99858 l -2.76316,-4.61036 c -0.31401,-0.52303 -0.92691,-0.77449 -1.51147,-0.70405 -0.19485,0.0235 -0.38551,0.081 -0.5668,0.18169 l -3.11741,1.74876 c -1.05141,-0.83906 -2.2621,-1.5092 -3.56613,-1.97587 l 0,-3.49752 c 0,-0.80524 -0.67411,-1.45351 -1.51147,-1.45351 l -5.52631,0 z m 2.76315,10.74237 c 3.02601,0 5.47909,2.35901 5.47909,5.26899 0,2.90997 -2.45308,5.26898 -5.47909,5.26898 -3.02601,0 -5.47908,-2.35901 -5.47908,-5.26898 0,-2.90998 2.45307,-5.26899 5.47908,-5.26899 z"
         style="fill:#ffffff;fill-rule:evenodd;stroke:none" />
      <path
         inkscape:export-ydpi="90"
         inkscape:export-xdpi="90"
         inkscape:export-filename="F:\Documents\Programming\WIP\Physica\bin\data\graphics\misc\icons.png"
         inkscape:connector-curvature="0"
         id="rect4031"
         d="m 140.50717,322.36188 c -0.0727,0.0811 -0.14291,0.16181 -0.2178,0.24205 -2.43923,2.6141 -5.32756,3.96568 -7.30023,3.62219 l -4.69473,5.03128 c -0.30525,0.32714 -0.38371,0.74719 -0.18553,0.95958 l 3.62188,3.88153 c 0.19817,0.21238 0.59014,0.1283 0.89539,-0.19884 l 3.94454,-4.22732 5.75146,6.17241 -9.84927,10.55533 c -0.19817,0.21238 -0.19817,0.557 0,0.76939 l 0.96799,1.03739 c 0.19817,0.21238 0.51168,0.20373 0.70986,-0.009 l 9.84926,-10.56398 9.84926,10.56398 c 0.19818,0.21238 0.51975,0.22103 0.71793,0.009 l 0.95992,-1.03739 c 0.19817,-0.21239 0.19817,-0.55701 0,-0.76939 l -9.84927,-10.56398 5.75146,-6.16376 3.94454,4.22732 c 0.30525,0.32714 0.70528,0.41122 0.90346,0.19884 l 3.61381,-3.88153 c 0.19818,-0.21239 0.11972,-0.63244 -0.18553,-0.95958 l -4.69473,-5.03128 c -1.97267,0.34349 -4.861,-1.00809 -7.30024,-3.62219 -0.0749,-0.0802 -0.13706,-0.16093 -0.20973,-0.24205 l -2.0247,2.16121 c -0.19817,0.21238 -0.11972,0.64109 0.18553,0.96821 l 4.09781,4.38294 -5.75952,6.1724 -5.75145,-6.1724 4.08974,-4.38294 c 0.30525,-0.32712 0.3837,-0.75583 0.18553,-0.96821 l -2.01664,-2.16121 z"
         style="fill:#ffffff;stroke:none" />
      <path
         inkscape:export-ydpi="90"
         inkscape:export-xdpi="90"
         inkscape:export-filename="F:\Documents\Programming\WIP\Physica\bin\data\graphics\misc\icons.png"
         transform="matrix(0.58918003,0,0,-0.5443072,77.755352,481.7818)"
         inkscape:transform-center-x="-1.9224812"
         d="m 30.966169,281.86218 c 0,2.91698 -22.7355783,16.04337 -25.2617537,14.58488 -2.5261754,-1.45848 -2.5261754,-27.71127 0,-29.16976 2.5261754,-1.45849 25.2617537,11.66791 25.2617537,14.58488 z"
         inkscape:randomized="0"
         inkscape:rounded="0.1"
         inkscape:flatsided="true"
         sodipodi:arg2="1.0471976"
         sodipodi:arg1="0"
         sodipodi:r2="8.4205847"
         sodipodi:r1="16.841169"
         sodipodi:cy="281.86218"
         sodipodi:cx="14.125"
         sodipodi:sides="3"
         id="path3944-17"
         style="fill:#ffffff;fill-opacity:1;stroke:none"
         sodipodi:type="star" />
      <path
         inkscape:export-ydpi="90"
         inkscape:export-xdpi="90"
         inkscape:export-filename="F:\Documents\Programming\WIP\Physica\bin\data\graphics\misc\icons.png"
         transform="matrix(-0.58918003,0,0,-0.5443072,82.244649,481.7818)"
         inkscape:transform-center-x="1.9224813"
         d="m 30.966169,281.86218 c 0,2.91698 -22.7355783,16.04337 -25.2617537,14.58488 -2.5261754,-1.45848 -2.5261754,-27.71127 0,-29.16976 2.5261754,-1.45849 25.2617537,11.66791 25.2617537,14.58488 z"
         inkscape:randomized="0"
         inkscape:rounded="0.1"
         inkscape:flatsided="true"
         sodipodi:arg2="1.0471976"
         sodipodi:arg1="0"
         sodipodi:r2="8.4205847"
         sodipodi:r1="16.841169"
         sodipodi:cy="281.86218"
         sodipodi:cx="14.125"
         sodipodi:sides="3"
         id="path3944-17-4"
         style="fill:#ffffff;fill-opacity:1;stroke:none"
         sodipodi:type="star" />
      <path
         inkscape:export-ydpi="90"
         inkscape:export-xdpi="90"
         inkscape:export-filename="F:\Documents\Programming\WIP\Physica\bin\data\graphics\misc\icons.png"
         transform="matrix(0.70889633,0,0,0.74437503,-35.702211,259.52406)"
         inkscape:transform-center-y="-4.976051"
         d="m 253.5,124.7197 c 4.51153,0.0829 22.06885,34.4232 25.71939,37.07543 3.53113,2.56547 40.66881,7.90767 41.94111,12.08281 1.31533,4.31632 -25.91875,31.62608 -27.31309,35.91753 -1.34874,4.15108 5.0467,41.12194 1.46908,43.62216 -3.69861,2.58477 -38.08753,-14.87721 -42.59981,-14.87717 -4.36469,3e-5 -37.54977,17.50708 -41.03317,14.87717 -3.6012,-2.71885 2.37937,-40.8207 0.98496,-45.11213 -1.34879,-4.15106 -28.25374,-30.30197 -26.82897,-34.42756 1.47294,-4.26512 39.55806,-10.35138 43.20855,-13.00366 3.53109,-2.56553 20.088,-36.23473 24.45195,-36.15458 z"
         inkscape:randomized="0"
         inkscape:rounded="0.1"
         inkscape:flatsided="false"
         sodipodi:arg2="-0.92412569"
         sodipodi:arg1="-1.5707963"
         sodipodi:r2="42.685478"
         sodipodi:r1="71.142464"
         sodipodi:cy="195.86217"
         sodipodi:cx="253.5"
         sodipodi:sides="5"
         id="path2999-0"
         style="fill:#ffcc00;fill-opacity:1;stroke:none"
         sodipodi:type="star" />
      <path
         inkscape:export-ydpi="90"
         inkscape:export-xdpi="90"
         inkscape:export-filename="F:\Documents\Programming\WIP\Physica\bin\data\graphics\misc\icons.png"
         inkscape:connector-curvature="0"
         id="rect3824"
         d="m 0.999998,336.36218 c -0.554,0 -1,0.446 -1,1 l 0,11.5 3.5,3.5 11.5,0 c 0.554,0 1,-0.446 1,-1 l 0,-14 c 0,-0.554 -0.446,-1 -1,-1 l -14,0 z m 0.5625,1.0625 12.875,0 0,6 -12.875,0 0,-6 z"
         style="fill:#ffffff;fill-opacity:1;stroke:none" />
      <path
         inkscape:export-ydpi="90"
         inkscape:export-xdpi="90"
         inkscape:export-filename="F:\Documents\Programming\WIP\Physica\bin\data\graphics\misc\icons.png"
         inkscape:connector-curvature="0"
         id="rect3837"
         d="m 25.999998,337.47156 c -0.554,0 -1,0.446 -1,1 l 0,0.78125 -8,0 c -0.554,0 -1,0.446 -1,1 l 0,10 c 0,0.554 0.446,1 1,1 l 14,0 c 0.554,0 1,-0.446 1,-1 l 0,-9.4375 0,-0.5625 0,-1.78125 c 0,-0.554 -0.446,-1 -1,-1 l -5,0 z"
         style="fill:#ffffff;fill-opacity:1;stroke:none" />
      <path
         inkscape:export-ydpi="90"
         inkscape:export-xdpi="90"
         inkscape:export-filename="F:\Documents\Programming\WIP\Physica\bin\data\graphics\misc\icons.png"
         inkscape:connector-curvature="0"
         id="rect3946-9"
         d="m 47.026786,337.33539 c -1.297614,-1.29761 -3.386916,-1.29761 -4.684525,0 l -2.342267,2.34226 -2.342264,-2.34226 c -1.297611,-1.29761 -3.386909,-1.29761 -4.684522,0 -1.297613,1.29762 -1.297613,3.38691 0,4.68453 l 2.342267,2.34226 -2.342267,2.34227 c -1.297613,1.29761 -1.297613,3.38691 0,4.68453 1.297613,1.29761 3.386911,1.29761 4.684522,0 l 2.342264,-2.34227 2.342267,2.34227 c 1.297609,1.29761 3.386911,1.29761 4.684525,0 1.297621,-1.29762 1.297621,-3.38692 0,-4.68453 l -2.34226,-2.34227 2.34226,-2.34226 c 1.297621,-1.29762 1.297621,-3.38691 0,-4.68453 z"
         style="fill:#ffffff;fill-opacity:1;stroke:none" />
      <path
         inkscape:export-ydpi="90"
         inkscape:export-xdpi="90"
         inkscape:export-filename="F:\Documents\Programming\WIP\Physica\bin\data\graphics\misc\icons.png"
         inkscape:connector-curvature="0"
         id="rect3904"
         d="M 53.09375,336.36218 50,339.45593 l 0,11.90625 c 0,0.554 0.446,1 1,1 l 10,0 c 0.554,0 1,-0.446 1,-1 l 0,-14 c 0,-0.554 -0.446,-1 -1,-1 l -7.90625,0 z"
         style="fill:#ffffff;fill-opacity:1;stroke:none" />
      <path
         inkscape:export-ydpi="90"
         inkscape:export-xdpi="90"
         inkscape:export-filename="F:\Documents\Programming\WIP\Physica\bin\data\graphics\misc\icons.png"
         inkscape:connector-curvature="0"
         id="path3972"
         d="m 66.43038,341.9318 c -1.343101,0 -2.43038,1.08728 -2.43038,2.43038 0,1.3431 1.087279,2.43038 2.43038,2.43038 1.343101,0 2.430379,-1.08728 2.430379,-2.43038 0,-1.3431 -1.087278,-2.43038 -2.430379,-2.43038 z m 5.56962,0 c -1.343101,0 -2.455696,1.08728 -2.455696,2.43038 0,1.3431 1.112595,2.43038 2.455696,2.43038 1.343101,0 2.43038,-1.08728 2.43038,-2.43038 0,-1.3431 -1.087279,-2.43038 -2.43038,-2.43038 z m 5.56962,0 c -1.343101,0 -2.430379,1.08728 -2.430379,2.43038 0,1.3431 1.087278,2.43038 2.430379,2.43038 1.343101,0 2.43038,-1.08728 2.43038,-2.43038 0,-1.3431 -1.087279,-2.43038 -2.43038,-2.43038 z"
         style="fill:#ffffff;fill-opacity:1;stroke:none" />
      <path
         inkscape:export-ydpi="90"
         inkscape:export-xdpi="90"
         inkscape:export-filename="F:\Documents\Programming\WIP\Physica\bin\data\graphics\misc\icons.png"
         inkscape:connector-curvature="0"
         id="rect3011"
         d="m 207.99998,352.36218 c -6.62742,0 -12,5.37258 -12,12 l 0,8 c -2.216,0 -4,1.784 -4,4 l 0,20 c 0,2.216 1.784,4 4,4 l 24,0 c 2.216,0 4,-1.784 4,-4 l 0,-20 c 0,-2.216 -1.784,-4 -4,-4 l 0,-8 c 0,-6.62742 -5.37258,-12 -12,-12 z m 0,4 c 4.41828,0 8,3.58172 8,8 l 0,8 -16,0 0,-8 c 0,-4.41828 3.58172,-8 8,-8 z m 0.0312,22.5 c 2.14148,0 3.875,1.73352 3.875,3.875 0,1.15171 -0.51522,2.19608 -1.3125,2.90625 l 1.3125,4.96875 c 0.35224,1.35036 -0.31745,2.4375 -0.71875,2.4375 l -6.375,0 c -0.40102,0 -1.07099,-1.08714 -0.71875,-2.4375 l 1.3125,-5.03125 c -0.77201,-0.70877 -1.25,-1.71311 -1.25,-2.84375 0,-2.14148 1.73351,-3.875 3.875,-3.875 z"
         style="fill:#ffffff;fill-opacity:1;stroke:none" />
      <path
         inkscape:export-ydpi="90"
         inkscape:export-xdpi="90"
         inkscape:export-filename="F:\Documents\Programming\WIP\Physica\bin\data\graphics\misc\icons.png"
         sodipodi:nodetypes="ccssscc"
         inkscape:connector-curvature="0"
         id="path3154"
         d="m 81.029432,351.86218 14.47057,0 c 0,0 -10.06384,-1.78331 -14.64377,-3.95876 -3.36739,-1.59949 18.35645,-1.53538 14.0467,-3.79734 -3.02202,-1.5861 -8.84532,-2.41935 -13.50785,-3.65166 -4.43573,-1.17238 13.28805,-3.59224 13.28805,-3.59224 l -13.19431,0"
         style="fill:none;stroke:#ffffff;stroke-width:0.99999994;stroke-linecap:round;stroke-linejoin:round;stroke-miterlimit:4;stroke-opacity:1;stroke-dasharray:none" />
      <path
         inkscape:export-ydpi="90"
         inkscape:export-xdpi="90"
         inkscape:export-filename="F:\Documents\Programming\WIP\Physica\bin\data\graphics\misc\icons.png"
         transform="matrix(0.05907469,0,0,0.06203125,181.0248,392.62567)"
         inkscape:transform-center-y="-0.41466736"
         d="m 253.5,124.7197 c 4.51153,0.0829 22.06885,34.4232 25.71939,37.07543 3.53113,2.56547 40.66881,7.90767 41.94111,12.08281 1.31533,4.31632 -25.91875,31.62608 -27.31309,35.91753 -1.34874,4.15108 5.0467,41.12194 1.46908,43.62216 -3.69861,2.58477 -38.08753,-14.87721 -42.59981,-14.87717 -4.36469,3e-5 -37.54977,17.50708 -41.03317,14.87717 -3.6012,-2.71885 2.37937,-40.8207 0.98496,-45.11213 -1.34879,-4.15106 -28.25374,-30.30197 -26.82897,-34.42756 1.47294,-4.26512 39.55806,-10.35138 43.20855,-13.00366 3.53109,-2.56553 20.088,-36.23473 24.45195,-36.15458 z"
         inkscape:randomized="0"
         inkscape:rounded="0.1"
         inkscape:flatsided="false"
         sodipodi:arg2="-0.92412569"
         sodipodi:arg1="-1.5707963"
         sodipodi:r2="42.685478"
         sodipodi:r1="71.142464"
         sodipodi:cy="195.86217"
         sodipodi:cx="253.5"
         sodipodi:sides="5"
         id="path2999-1"
         style="fill:#191919;fill-opacity:1;stroke:none"
         sodipodi:type="star" />
      <path
         inkscape:export-ydpi="90"
         inkscape:export-xdpi="90"
         inkscape:export-filename="F:\Documents\Programming\WIP\Physica\bin\data\graphics\misc\icons.png"
         transform="matrix(0.05907469,0,0,0.06203125,189.0248,392.62567)"
         inkscape:transform-center-y="-0.41466736"
         d="m 253.5,124.7197 c 4.51153,0.0829 22.06885,34.4232 25.71939,37.07543 3.53113,2.56547 40.66881,7.90767 41.94111,12.08281 1.31533,4.31632 -25.91875,31.62608 -27.31309,35.91753 -1.34874,4.15108 5.0467,41.12194 1.46908,43.62216 -3.69861,2.58477 -38.08753,-14.87721 -42.59981,-14.87717 -4.36469,3e-5 -37.54977,17.50708 -41.03317,14.87717 -3.6012,-2.71885 2.37937,-40.8207 0.98496,-45.11213 -1.34879,-4.15106 -28.25374,-30.30197 -26.82897,-34.42756 1.47294,-4.26512 39.55806,-10.35138 43.20855,-13.00366 3.53109,-2.56553 20.088,-36.23473 24.45195,-36.15458 z"
         inkscape:randomized="0"
         inkscape:rounded="0.1"
         inkscape:flatsided="false"
         sodipodi:arg2="-0.92412569"
         sodipodi:arg1="-1.5707963"
         sodipodi:r2="42.685478"
         sodipodi:r1="71.142464"
         sodipodi:cy="195.86217"
         sodipodi:cx="253.5"
         sodipodi:sides="5"
         id="path2999-0-7"
         style="fill:#ffcc00;fill-opacity:1;stroke:none"
         sodipodi:type="star" />
      <path
         inkscape:connector-curvature="0"
         id="path3164"
         d="m 229.65043,320.36187 c -0.48232,0.97883 -0.85582,2.03241 -1.0955,3.13931 -2.57207,0.35771 -4.55495,2.75205 -4.55495,5.65076 0,3.1459 2.33868,5.6926 5.22763,5.6926 0.59973,0 1.1742,-0.11185 1.71051,-0.31392 1.65893,2.1883 3.97285,3.78097 6.61141,4.39502 l 0,5.39961 -3.24805,0 c -0.94172,0 -1.18827,0.71779 -1.69129,1.48594 l -3.3057,5.04381 c -0.50398,0.76962 1.09718,1.50687 2.46006,1.50687 l 16.49008,0 c 1.36288,0 2.96404,-0.73725 2.46006,-1.50687 l -3.32492,-5.04381 c -0.50302,-0.76815 -0.74957,-1.48594 -1.69129,-1.48594 l -3.22883,0 0,-5.39961 c 2.63668,-0.61405 4.95657,-2.20672 6.61141,-4.39502 0.53142,0.19797 1.09795,0.31392 1.69129,0.31392 2.88895,0 5.22763,-2.5467 5.22763,-5.6926 0,-2.89871 -1.98288,-5.29305 -4.55495,-5.65076 -0.23968,-1.1069 -0.61318,-2.16048 -1.0955,-3.13931 l -20.6991,0 z m -1.38378,5.44147 c -0.008,0.19376 -0.0192,0.38988 -0.0192,0.586 0,2.26224 0.55123,4.39088 1.4991,6.23675 -0.16922,0.0297 -0.34194,0.0419 -0.51892,0.0419 -1.78435,0 -3.22883,-1.57297 -3.22883,-3.51603 0,-1.57873 0.95319,-2.90369 2.26787,-3.34859 z m 23.46666,0 c 1.31468,0.4449 2.26787,1.76986 2.26787,3.3486 0,1.94305 -1.44448,3.51601 -3.22883,3.51601 -0.17698,0 -0.3497,-0.0121 -0.51892,-0.0419 0.94554,-1.84614 1.4991,-3.97407 1.4991,-6.23676 0,-0.19611 -0.011,-0.39224 -0.0192,-0.586 z"
         style="fill:#ffffff;fill-opacity:1;stroke:none" />
      <path
         inkscape:transform-center-y="1.9224794"
         inkscape:export-ydpi="90"
         inkscape:export-xdpi="90"
         inkscape:export-filename="F:\Documents\Programming\WIP\Physica\bin\data\graphics\misc\icons.png"
         transform="matrix(0,0.58918003,0.5443072,0,78.580365,350.11722)"
         d="m 30.966169,281.86218 c 0,2.91698 -22.7355783,16.04337 -25.2617537,14.58488 -2.5261754,-1.45848 -2.5261754,-27.71127 0,-29.16976 2.5261754,-1.45849 25.2617537,11.66791 25.2617537,14.58488 z"
         inkscape:randomized="0"
         inkscape:rounded="0.1"
         inkscape:flatsided="true"
         sodipodi:arg2="1.0471976"
         sodipodi:arg1="0"
         sodipodi:r2="8.4205847"
         sodipodi:r1="16.841169"
         sodipodi:cy="281.86218"
         sodipodi:cx="14.125"
         sodipodi:sides="3"
         id="path3944-17-1"
         style="fill:#ffffff;fill-opacity:1;stroke:none"
         sodipodi:type="star" />
      <path
         inkscape:transform-center-y="-1.9224831"
         inkscape:export-ydpi="90"
         inkscape:export-xdpi="90"
         inkscape:export-filename="F:\Documents\Programming\WIP\Physica\bin\data\graphics\misc\icons.png"
         transform="matrix(0,-0.58918003,0.5443072,0,94.580365,370.60652)"
         d="m 30.966169,281.86218 c 0,2.91698 -22.7355783,16.04337 -25.2617537,14.58488 -2.5261754,-1.45848 -2.5261754,-27.71127 0,-29.16976 2.5261754,-1.45849 25.2617537,11.66791 25.2617537,14.58488 z"
         inkscape:randomized="0"
         inkscape:rounded="0.1"
         inkscape:flatsided="true"
         sodipodi:arg2="1.0471976"
         sodipodi:arg1="0"
         sodipodi:r2="8.4205847"
         sodipodi:r1="16.841169"
         sodipodi:cy="281.86218"
         sodipodi:cx="14.125"
         sodipodi:sides="3"
         id="path3944-17-4-7"
         style="fill:#ffffff;fill-opacity:1;stroke:none"
         sodipodi:type="star" />
      <path
         inkscape:export-ydpi="90"
         inkscape:export-xdpi="90"
         inkscape:export-filename="F:\Documents\Programming\WIP\Physica\bin\data\graphics\misc\icons.png"
         inkscape:connector-curvature="0"
         id="rect3946-9-4"
         d="m 231.99998,368.36187 c -1.47733,0 -2.66667,1.18934 -2.66667,2.66667 l -1e-5,2.66666 -2.66665,0 c -1.47733,0 -2.66667,1.18934 -2.66667,2.66667 0,1.47733 1.18933,2.66666 2.66667,2.66666 l 2.66666,0 10e-6,2.66667 c -10e-6,1.47733 1.18933,2.66667 2.66666,2.66667 1.47733,0 2.66667,-1.18934 2.66667,-2.66667 l -1e-5,-2.66666 2.66667,0 c 1.47733,0 2.66667,-1.18934 2.66667,-2.66667 0,-1.47733 -1.18934,-2.66667 -2.66667,-2.66666 l -2.66667,-10e-6 0,-2.66666 c 0,-1.47734 -1.18933,-2.66667 -2.66666,-2.66667 z"
         style="fill:#ffffff;fill-opacity:1;stroke:none" />
      <path
         style="fill:#ffffff;fill-opacity:1;stroke:none"
         d="m 241.99998,368.36187 c -1.108,0 -2,0.892 -2,2 l 0,12 c 0,1.108 0.892,2 2,2 l 12,0 c 1.108,0 2,-0.892 2,-2 l 0,-12 c 0,-1.108 -0.892,-2 -2,-2 l -12,0 z m 1.5,2 9,0 c 0.831,0 1.5,0.669 1.5,1.5 l 0,9 c 0,0.831 -0.669,1.5 -1.5,1.5 l -9,0 c -0.831,0 -1.5,-0.669 -1.5,-1.5 l 0,-9 c 0,-0.831 0.669,-1.5 1.5,-1.5 z"
         id="rect3019"
         inkscape:connector-curvature="0" />
    </g>
  </g>
</svg>
