<?xml version="1.0" encoding="UTF-8" standalone="no"?>
<!-- Created with Inkscape (http://www.inkscape.org/) -->

<svg
   xmlns:dc="http://purl.org/dc/elements/1.1/"
   xmlns:cc="http://creativecommons.org/ns#"
   xmlns:rdf="http://www.w3.org/1999/02/22-rdf-syntax-ns#"
   xmlns:svg="http://www.w3.org/2000/svg"
   xmlns="http://www.w3.org/2000/svg"
   xmlns:sodipodi="http://sodipodi.sourceforge.net/DTD/sodipodi-0.dtd"
   xmlns:inkscape="http://www.inkscape.org/namespaces/inkscape"
   width="744.09448819"
   height="1052.3622047"
   id="svg2"
   version="1.1"
   inkscape:version="0.48.4 r9939"
   sodipodi:docname="levelSets.svg"
   inkscape:export-filename="F:\Documents\Programming\WIP\Physica\bin\data\graphics\levelSets.png"
   inkscape:export-xdpi="90"
   inkscape:export-ydpi="90">
  <defs
     id="defs4" />
  <sodipodi:namedview
     id="base"
     pagecolor="#000000"
     bordercolor="#666666"
     borderopacity="1.0"
     inkscape:pageopacity="0"
     inkscape:pageshadow="2"
     inkscape:zoom="0.74023945"
     inkscape:cx="372.04724"
     inkscape:cy="526.18109"
     inkscape:document-units="px"
     inkscape:current-layer="layer1"
     showgrid="false"
     inkscape:window-width="1680"
     inkscape:window-height="994"
     inkscape:window-x="-4"
     inkscape:window-y="-4"
     inkscape:window-maximized="1" />
  <metadata
     id="metadata7">
    <rdf:RDF>
      <cc:Work
         rdf:about="">
        <dc:format>image/svg+xml</dc:format>
        <dc:type
           rdf:resource="http://purl.org/dc/dcmitype/StillImage" />
        <dc:title></dc:title>
      </cc:Work>
    </rdf:RDF>
  </metadata>
  <g
     inkscape:label="Livello 1"
     inkscape:groupmode="layer"
     id="layer1">
    <rect
       style="fill:none;fill-opacity:1;stroke:none"
       id="rect3074-82"
       width="56"
       height="56"
       x="296.625"
       y="365.48718"
       inkscape:export-filename="F:\Documents\Programming\WIP\Physica\bin\data\graphics\levelSets.png"
       inkscape:export-xdpi="90"
       inkscape:export-ydpi="90" />
    <rect
       style="fill:none;fill-opacity:1;stroke:none"
       id="rect3074-8"
       width="56"
       height="56"
       x="240.625"
       y="365.48718"
       inkscape:export-filename="F:\Documents\Programming\WIP\Physica\bin\data\graphics\levelSets.png"
       inkscape:export-xdpi="90"
       inkscape:export-ydpi="90" />
    <rect
       style="fill:none;fill-opacity:1;stroke:none;stroke-width:2;stroke-linejoin:round;stroke-miterlimit:4;stroke-opacity:1;stroke-dasharray:none"
       id="rect3074"
       width="56"
       height="56"
       x="184.625"
       y="365.48718"
       inkscape:export-filename="F:\Documents\Programming\WIP\Physica\bin\data\graphics\levelSets.png"
       inkscape:export-xdpi="90"
       inkscape:export-ydpi="90" />
    <g
       id="g3798"
       inkscape:export-filename="F:\Documents\Programming\WIP\Physica\bin\data\graphics\levelSets.png"
       inkscape:export-xdpi="90"
       inkscape:export-ydpi="90">
      <path
         inkscape:connector-curvature="0"
         id="rect3755"
         d="m 207.98191,378.65107 c -1.28613,0 -2.32154,1.03541 -2.32154,2.32154 l 0,9.28617 c 0,1.28614 1.03541,2.32155 2.32154,2.32155 l 9.28618,0 c 1.28613,0 2.32154,-1.03541 2.32154,-2.32155 l 0,-9.28617 c 0,-1.28613 -1.03541,-2.32154 -2.32154,-2.32154 l -9.28618,0 z m 4.64309,2.32154 c 0.34832,0 3.65648,4.40971 3.48232,4.64309 -0.0657,0.088 -1.11504,0.15978 -2.32155,0.18137 l 0,3.55486 c 0,0.49143 -0.52555,0.90685 -1.16077,0.90685 -0.63522,0 -1.16077,-0.41542 -1.16077,-0.90685 l 0,-3.55486 c -1.20651,-0.0216 -2.25585,-0.0933 -2.32155,-0.18137 -0.17416,-0.23338 3.134,-4.64309 3.48232,-4.64309 z m -20.24096,13.42142 c -1.28613,0 -2.32154,1.03541 -2.32154,2.32155 l 0,9.28617 c 0,1.28613 1.03541,2.32154 2.32154,2.32154 l 9.28618,0 c 1.28613,0 2.32154,-1.03541 2.32154,-2.32154 l 0,-9.28617 c 0,-1.28614 -1.03541,-2.32155 -2.32154,-2.32155 l -9.28618,0 z m 15.59787,0 c -1.28613,0 -2.32154,1.03541 -2.32154,2.32155 l 0,9.28617 c 0,1.28613 1.03541,2.32154 2.32154,2.32154 l 9.28618,0 c 1.28613,0 2.32154,-1.03541 2.32154,-2.32154 l 0,-9.28617 c 0,-1.28614 -1.03541,-2.32155 -2.32154,-2.32155 l -9.28618,0 z m 15.59787,0 c -1.28613,0 -2.32154,1.03541 -2.32154,2.32155 l 0,9.28617 c 0,1.28613 1.03541,2.32154 2.32154,2.32154 l 9.28618,0 c 1.28613,0 2.32154,-1.03541 2.32154,-2.32154 l 0,-9.28617 c 0,-1.28614 -1.03541,-2.32155 -2.32154,-2.32155 l -9.28618,0 z m -10.95478,2.32155 c 0.63522,0 1.16077,0.41542 1.16077,0.90685 l 0,3.55486 c 1.20651,0.0216 2.25585,0.0933 2.32155,0.18137 0.17416,0.23338 -3.134,4.64309 -3.48232,4.64309 -0.34832,0 -3.65648,-4.40971 -3.48232,-4.64309 0.0657,-0.088 1.11504,-0.15978 2.32155,-0.18137 l 0,-3.55486 c 0,-0.49143 0.52555,-0.90685 1.16077,-0.90685 z m -15.59787,1.16077 c 0.088,0.0657 0.15978,1.11504 0.18137,2.32154 l 3.55486,0 c 0.49143,0 0.90686,0.52555 0.90686,1.16077 0,0.63522 -0.41543,1.16077 -0.90686,1.16077 l -3.55486,0 c -0.0216,1.20651 -0.0933,2.25585 -0.18137,2.32155 -0.23337,0.17416 -4.64309,-3.13399 -4.64309,-3.48232 0,-0.34832 4.40972,-3.65647 4.64309,-3.48231 z m 31.19574,0 c 0.23337,-0.17416 4.64309,3.13399 4.64309,3.48231 0,0.34833 -4.40972,3.65648 -4.64309,3.48232 -0.088,-0.0656 -0.15978,-1.11504 -0.18137,-2.32155 l -3.55486,0 c -0.49143,0 -0.90686,-0.52555 -0.90686,-1.16077 0,-0.63522 0.41543,-1.16077 0.90686,-1.16077 l 3.55486,0 c 0.0216,-1.2065 0.0933,-2.25584 0.18137,-2.32154 z"
         style="fill:#ffffff;fill-opacity:1;stroke:none" />
    </g>
    <flowRoot
       xml:space="preserve"
       id="flowRoot3870"
       style="fill:black;stroke:none;stroke-opacity:1;stroke-width:1px;stroke-linejoin:miter;stroke-linecap:butt;fill-opacity:1;font-family:Calibri;font-style:normal;font-weight:normal;font-size:12px;line-height:125%;letter-spacing:0px;word-spacing:0px;-inkscape-font-specification:Calibri;font-stretch:normal;font-variant:normal"><flowRegion
         id="flowRegion3872"><rect
           id="rect3874"
           width="24.875"
           height="25.25"
           x="215.625"
           y="352.36218" /></flowRegion><flowPara
         id="flowPara3876" /></flowRoot>    <flowRoot
       xml:space="preserve"
       id="flowRoot3007"
       style="font-size:40px;font-style:normal;font-weight:normal;line-height:125%;letter-spacing:0px;word-spacing:0px;fill:#ffffff;fill-opacity:1;stroke:none;font-family:Sans"
       transform="translate(66.368164,11.280227)"
       inkscape:export-filename="F:\Documents\Programming\WIP\Physica\bin\data\graphics\levelSets.png"
       inkscape:export-xdpi="90"
       inkscape:export-ydpi="90"><flowRegion
         id="flowRegion3009"><rect
           id="rect3011"
           width="72.875"
           height="72.75"
           x="189.125"
           y="342.11218"
           style="fill:#ffffff" /></flowRegion><flowPara
         id="flowPara3013"
         style="font-style:normal;font-variant:normal;font-weight:normal;font-stretch:normal;text-align:start;text-anchor:start;fill:#ffffff;font-family:La chata;-inkscape-font-specification:La chata"><flowSpan
           style="font-size:64px;fill:#ffffff"
           id="flowSpan3017">1</flowSpan><flowSpan
           style="font-size:65.00091553%;baseline-shift:super;fill:#ffffff"
           id="flowSpan3023" /></flowPara></flowRoot>    <flowRoot
       xml:space="preserve"
       id="flowRoot3007-1"
       style="font-size:40px;font-style:normal;font-weight:normal;line-height:125%;letter-spacing:0px;word-spacing:0px;fill:#ffffff;fill-opacity:1;stroke:none;font-family:Sans"
       transform="translate(117.74023,11.343704)"
       inkscape:export-filename="F:\Documents\Programming\WIP\Physica\bin\data\graphics\levelSets.png"
       inkscape:export-xdpi="90"
       inkscape:export-ydpi="90"><flowRegion
         id="flowRegion3009-7"><rect
           id="rect3011-4"
           width="72.875"
           height="72.75"
           x="189.125"
           y="342.11218"
           style="fill:#ffffff" /></flowRegion><flowPara
         id="flowPara3013-0"
         style="font-size:64px;font-style:normal;font-variant:normal;font-weight:normal;font-stretch:normal;text-align:start;text-anchor:start;fill:#ffffff;font-family:La chata;-inkscape-font-specification:La chata">2</flowPara></flowRoot>  </g>
</svg>
